# xmcd CD database file
#
# Track frame offsets:
#	150
#	34492
#	59863
#	94736
#	117139
#	130236
#	151120
#	164217
#	180045
#	193965
#	216285
#	234048
#	252858
#	268016
#
# Disc length: 3892 seconds
#
# Revision: 1
# Processed by: cddbd v1.5.2PL0 Copyright (c) Steve Scherf et al.
# Submitted via: CDex 1.51
#
DISCID=c70f320e
DTITLE=Doble R - Hot Salsa CD1
DYEAR=1900
DGENRE=Salsa
TTITLE0=Ecos Del Sur - La vida continua
TTITLE1=Johnny Ventura - Mosaico 1920
TTITLE2=Cuco Valoy - Guantanamera
TTITLE3=Jorge Cabrera - Mata que Dios Perdona
TTITLE4=Los jovenes del hierro -Ritmo sabroso
TTITLE5=Orquesta Noche Sabrosa - Culu cucu
TTITLE6=Los Ahijados - El hombre misterio
TTITLE7=Jorge Cabrera - Por borracha
TTITLE8=Los Jovenes del hierro - Rico moropo
TTITLE9=Cuco Valoy - Nacio Varon
TTITLE10=Johnny Ventura - Bobine (Banana)
TTITLE11=Los Ahijados - Timoteo
TTITLE12=Cubam Jam Session - Mambru
TTITLE13=Kelman Nuñez - El dia de mi suerte
EXTD=
EXTT0=
EXTT1=
EXTT2=
EXTT3=
EXTT4=
EXTT5=
EXTT6=
EXTT7=
EXTT8=
EXTT9=
EXTT10=
EXTT11=
EXTT12=
EXTT13=
PLAYORDER=
